<svg class='side-links__svg' width="26" height="130" viewBox="0 0 26 130" fill="none" xmlns="http://www.w3.org/2000/svg">
<path d="M25.32 117.24C25.32 114.008 24.264 111.224 22.184 108.92H17.448C20.008 111.512 21.48 114.008 21.48 117.24C21.48 119.608 20.68 121.624 19.048 123.256C17.416 124.888 15.4 125.72 13 125.72C10.6 125.72 8.616 124.888 6.984 123.256C5.352 121.624 4.52 119.608 4.52 117.24C4.52 114.008 5.992 111.512 8.552 108.92H3.816C1.736 111.224 0.679998 114.008 0.679998 117.24C0.679998 120.728 1.864 123.672 4.264 126.04C6.664 128.376 9.576 129.56 13 129.56C16.424 129.56 19.336 128.376 21.736 126.04C24.136 123.672 25.32 120.728 25.32 117.24ZM25.32 93.7087C25.32 90.2207 24.136 87.2767 21.736 84.9407C19.336 82.5727 16.424 81.3887 13 81.3887C9.576 81.3887 6.664 82.5727 4.264 84.9407C1.864 87.2767 0.679998 90.2207 0.679998 93.7087C0.679998 97.1967 1.864 100.109 4.264 102.477C6.664 104.845 9.576 106.029 13 106.029C16.424 106.029 19.336 104.845 21.736 102.477C24.136 100.109 25.32 97.1967 25.32 93.7087ZM21.48 93.7087C21.48 96.0447 20.648 98.0608 19.016 99.7247C17.352 101.357 15.336 102.189 13 102.189C10.664 102.189 8.648 101.357 7.016 99.7247C5.352 98.0608 4.52 96.0447 4.52 93.7087C4.52 91.3407 5.352 89.3247 7.016 87.6927C8.648 86.0607 10.664 85.2287 13 85.2287C15.336 85.2287 17.352 86.0607 19.016 87.6927C20.648 89.3247 21.48 91.3407 21.48 93.7087ZM21.16 69.6837L0.999998 76.8197V80.8837L25 72.2117V67.1557L0.999998 58.4517V62.5477L21.16 69.6837ZM0.999998 40.092V55.58H25V40.124H21.16V51.74H13.864V42.076H10.024V51.74H4.84V40.092H0.999998ZM9.256 19.2322C6.984 19.2322 5.032 20.0322 3.432 21.6642C1.8 23.2962 0.999998 25.2482 0.999998 27.5202V36.7362H25V32.8962H17.544V27.5202L25 24.2242V20.0642L16.648 23.7762C15.24 21.0562 12.424 19.2322 9.256 19.2322ZM4.84 27.5202C4.84 26.3042 5.288 25.2482 6.152 24.3842C7.016 23.5202 8.04 23.0722 9.256 23.0722C10.504 23.0722 11.56 23.5202 12.424 24.3842C13.288 25.2482 13.704 26.2722 13.704 27.5202V32.8962H4.84V27.5202ZM25.32 9.325C25.32 4.173 22.728 0.941 18.408 0.941C16.648 0.941 15.208 1.517 14.088 2.669C12.968 3.789 11.848 5.709 10.728 8.397C10.44 9.069 10.216 9.549 10.12 9.837L9.544 10.989C9.288 11.469 9.064 11.821 8.872 12.013C8.488 12.397 7.848 12.845 7.176 12.845C5.544 12.845 4.52 11.117 4.52 8.461C4.52 5.901 5.672 3.693 7.944 1.837H3.08C1.48 3.437 0.679998 5.677 0.679998 8.589C0.679998 10.989 1.256 12.941 2.44 14.445C3.592 15.949 5.128 16.685 7.08 16.685C9 16.685 10.472 16.109 11.592 14.733C12.136 14.061 12.584 13.389 12.936 12.749C13.288 12.109 13.672 11.245 14.152 10.189C15.08 8.077 15.848 6.637 16.392 5.901C16.936 5.165 17.64 4.781 18.504 4.781C20.584 4.781 21.48 6.765 21.48 9.357C21.48 10.989 20.968 12.557 20.584 13.453C20.36 13.869 20.04 14.349 19.56 14.893L18.632 15.885C18.472 16.013 18.12 16.269 17.64 16.685H22.472L22.76 16.429C23.144 16.077 23.784 15.245 24.328 14.189C24.872 13.069 25.32 11.245 25.32 9.325Z"/>
<path d="M22.184 108.92L22.2582 108.853L22.2284 108.82H22.184V108.92ZM17.448 108.92V108.82H17.2087L17.3769 108.99L17.448 108.92ZM19.048 123.256L19.1187 123.327L19.048 123.256ZM8.552 108.92L8.62315 108.99L8.79132 108.82H8.552V108.92ZM3.816 108.92V108.82H3.77155L3.74177 108.853L3.816 108.92ZM4.264 126.04L4.19376 126.111L4.19425 126.112L4.264 126.04ZM21.736 126.04L21.8058 126.112L21.8062 126.111L21.736 126.04ZM25.42 117.24C25.42 113.984 24.3554 111.176 22.2582 108.853L22.1098 108.987C24.1726 111.272 25.22 114.032 25.22 117.24H25.42ZM22.184 108.82H17.448V109.02H22.184V108.82ZM17.3769 108.99C19.9274 111.573 21.38 114.045 21.38 117.24H21.58C21.58 113.971 20.0886 111.451 17.5191 108.85L17.3769 108.99ZM21.38 117.24C21.38 119.583 20.5895 121.573 18.9773 123.185L19.1187 123.327C20.7705 121.675 21.58 119.633 21.58 117.24H21.38ZM18.9773 123.185C17.3645 124.798 15.3742 125.62 13 125.62V125.82C15.4258 125.82 17.4675 124.978 19.1187 123.327L18.9773 123.185ZM13 125.62C10.6262 125.62 8.66776 124.798 7.05471 123.185L6.91329 123.327C8.56424 124.978 10.5737 125.82 13 125.82V125.62ZM7.05471 123.185C5.4418 121.572 4.62 119.582 4.62 117.24H4.42C4.42 119.634 5.2622 121.676 6.91329 123.327L7.05471 123.185ZM4.62 117.24C4.62 114.045 6.07261 111.573 8.62315 108.99L8.48085 108.85C5.91138 111.451 4.42 113.971 4.42 117.24H4.62ZM8.552 108.82H3.816V109.02H8.552V108.82ZM3.74177 108.853C1.64459 111.176 0.579998 113.984 0.579998 117.24H0.779999C0.779999 114.032 1.8274 111.272 3.89022 108.987L3.74177 108.853ZM0.579998 117.24C0.579998 120.753 1.77366 123.723 4.19376 126.111L4.33424 125.969C1.95433 123.621 0.779999 120.703 0.779999 117.24H0.579998ZM4.19425 126.112C6.61314 128.466 9.55025 129.66 13 129.66V129.46C9.60175 129.46 6.71486 128.286 4.33375 125.968L4.19425 126.112ZM13 129.66C16.4497 129.66 19.3869 128.466 21.8057 126.112L21.6663 125.968C19.2851 128.286 16.3983 129.46 13 129.46V129.66ZM21.8062 126.111C24.2263 123.723 25.42 120.753 25.42 117.24H25.22C25.22 120.703 24.0457 123.621 21.6658 125.969L21.8062 126.111ZM21.736 84.9408L21.6658 85.0119L21.6663 85.0124L21.736 84.9408ZM4.264 84.9408L4.33375 85.0124L4.33424 85.0119L4.264 84.9408ZM4.264 102.477L4.33424 102.406L4.264 102.477ZM21.736 102.477L21.6658 102.406L21.736 102.477ZM19.016 99.7248L19.086 99.7962L19.0874 99.7948L19.016 99.7248ZM7.016 87.6927L7.08602 87.7641L7.08671 87.7635L7.016 87.6927ZM19.016 87.6927L19.0867 87.622L19.086 87.6214L19.016 87.6927ZM25.42 93.7087C25.42 90.1956 24.2264 87.2252 21.8057 84.8691L21.6663 85.0124C24.0456 87.3283 25.22 90.2459 25.22 93.7087H25.42ZM21.8062 84.8696C19.3872 82.4828 16.4498 81.2887 13 81.2887V81.4887C16.3982 81.4887 19.2848 82.6627 21.6658 85.0119L21.8062 84.8696ZM13 81.2887C9.55017 81.2887 6.6128 82.4828 4.19376 84.8696L4.33424 85.0119C6.7152 82.6627 9.60183 81.4887 13 81.4887V81.2887ZM4.19425 84.8691C1.7736 87.2252 0.579998 90.1956 0.579998 93.7087H0.779999C0.779999 90.2459 1.9544 87.3283 4.33375 85.0124L4.19425 84.8691ZM0.579998 93.7087C0.579998 97.2223 1.77386 100.16 4.19376 102.548L4.33424 102.406C1.95414 100.057 0.779999 97.1712 0.779999 93.7087H0.579998ZM4.19376 102.548C6.6128 104.935 9.55017 106.129 13 106.129V105.929C9.60183 105.929 6.7152 104.755 4.33424 102.406L4.19376 102.548ZM13 106.129C16.4498 106.129 19.3872 104.935 21.8062 102.548L21.6658 102.406C19.2848 104.755 16.3982 105.929 13 105.929V106.129ZM21.8062 102.548C24.2261 100.16 25.42 97.2223 25.42 93.7087H25.22C25.22 97.1712 24.0459 100.057 21.6658 102.406L21.8062 102.548ZM21.38 93.7087C21.38 96.0183 20.5584 98.0093 18.9446 99.6547L19.0874 99.7948C20.7376 98.1122 21.58 96.0712 21.58 93.7087H21.38ZM18.946 99.6534C17.3005 101.267 15.3096 102.089 13 102.089V102.289C15.3624 102.289 17.4035 101.446 19.086 99.7961L18.946 99.6534ZM13 102.089C10.6902 102.089 8.69976 101.267 7.08671 99.654L6.94529 99.7955C8.59623 101.446 10.6378 102.289 13 102.289V102.089ZM7.08671 99.654C5.44145 98.0088 4.62 96.0182 4.62 93.7087H4.42C4.42 96.0713 5.26255 98.1127 6.94529 99.7955L7.08671 99.654ZM4.62 93.7087C4.62 91.3669 5.44168 89.3769 7.08602 87.7641L6.94598 87.6214C5.26232 89.2726 4.42 91.3146 4.42 93.7087H4.62ZM7.08671 87.7635C8.69976 86.1504 10.6902 85.3287 13 85.3287V85.1287C10.6378 85.1287 8.59623 85.9711 6.94529 87.622L7.08671 87.7635ZM13 85.3287C15.3096 85.3287 17.3005 86.1503 18.946 87.7641L19.086 87.6214C17.4035 85.9712 15.3624 85.1287 13 85.1287V85.3287ZM18.9453 87.7635C20.5582 89.3764 21.38 91.3668 21.38 93.7087H21.58C21.58 91.3147 20.7378 89.2731 19.0867 87.622L18.9453 87.7635ZM21.16 69.6838L21.1934 69.778L21.4597 69.6838L21.1934 69.5895L21.16 69.6838ZM1 76.8197L0.966629 76.7255L0.899998 76.7491V76.8197H1ZM1 80.8838H0.899998V81.0262L1.03398 80.9778L1 80.8838ZM25 72.2118L25.034 72.3058L25.1 72.2819V72.2118H25ZM25 67.1558H25.1V67.0856L25.0341 67.0617L25 67.1558ZM1 58.4518L1.03409 58.3577L0.899998 58.3091V58.4518H1ZM1 62.5477H0.899998V62.6184L0.966629 62.642L1 62.5477ZM21.1266 69.5895L0.966629 76.7255L1.03337 76.914L21.1934 69.778L21.1266 69.5895ZM0.899998 76.8197V80.8838H1.1V76.8197H0.899998ZM1.03398 80.9778L25.034 72.3058L24.966 72.1177L0.966015 80.7897L1.03398 80.9778ZM25.1 72.2118V67.1558H24.9V72.2118H25.1ZM25.0341 67.0617L1.03409 58.3577L0.965904 58.5458L24.9659 67.2498L25.0341 67.0617ZM0.899998 58.4518V62.5477H1.1V58.4518H0.899998ZM0.966629 62.642L21.1266 69.778L21.1934 69.5895L1.03337 62.4535L0.966629 62.642ZM1 40.092V39.992H0.899998V40.092H1ZM1 55.58H0.899998V55.68H1V55.58ZM25 55.58V55.68H25.1V55.58H25ZM25 40.124H25.1V40.024H25V40.124ZM21.16 40.124V40.024H21.06V40.124H21.16ZM21.16 51.74V51.84H21.26V51.74H21.16ZM13.864 51.74H13.764V51.84H13.864V51.74ZM13.864 42.076H13.964V41.976H13.864V42.076ZM10.024 42.076V41.976H9.924V42.076H10.024ZM10.024 51.74V51.84H10.124V51.74H10.024ZM4.84 51.74H4.74V51.84H4.84V51.74ZM4.84 40.092H4.94V39.992H4.84V40.092ZM0.899998 40.092V55.58H1.1V40.092H0.899998ZM1 55.68H25V55.48H1V55.68ZM25.1 55.58V40.124H24.9V55.58H25.1ZM25 40.024H21.16V40.224H25V40.024ZM21.06 40.124V51.74H21.26V40.124H21.06ZM21.16 51.64H13.864V51.84H21.16V51.64ZM13.964 51.74V42.076H13.764V51.74H13.964ZM13.864 41.976H10.024V42.176H13.864V41.976ZM9.924 42.076V51.74H10.124V42.076H9.924ZM10.024 51.64H4.84V51.84H10.024V51.64ZM4.94 51.74V40.092H4.74V51.74H4.94ZM4.84 39.992H1V40.192H4.84V39.992ZM3.432 21.6642L3.50271 21.735L3.50341 21.7343L3.432 21.6642ZM1 36.7363H0.899998V36.8363H1V36.7363ZM25 36.7363V36.8363H25.1V36.7363H25ZM25 32.8962H25.1V32.7962H25V32.8962ZM17.544 32.8962H17.444V32.9962H17.544V32.8962ZM17.544 27.5202L17.5036 27.4288L17.444 27.4551V27.5202H17.544ZM25 24.2243L25.0404 24.3157L25.1 24.2894V24.2243H25ZM25 20.0642H25.1V19.9104L24.9594 19.9729L25 20.0642ZM16.648 23.7762L16.5592 23.8222L16.6025 23.9059L16.6886 23.8676L16.648 23.7762ZM6.152 24.3842L6.22271 24.455L6.152 24.3842ZM13.704 32.8962V32.9962H13.804V32.8962H13.704ZM4.84 32.8962H4.74V32.9962H4.84V32.8962ZM9.256 19.1322C6.95768 19.1322 4.97977 19.9427 3.36059 21.5942L3.50341 21.7343C5.08422 20.1218 7.01032 19.3322 9.256 19.3322V19.1322ZM3.36129 21.5935C1.71051 23.2443 0.899998 25.2218 0.899998 27.5202H1.1C1.1 25.2747 1.88949 23.3482 3.50271 21.735L3.36129 21.5935ZM0.899998 27.5202V36.7363H1.1V27.5202H0.899998ZM1 36.8363H25V36.6363H1V36.8363ZM25.1 36.7363V32.8962H24.9V36.7363H25.1ZM25 32.7962H17.544V32.9962H25V32.7962ZM17.644 32.8962V27.5202H17.444V32.8962H17.644ZM17.5844 27.6117L25.0404 24.3157L24.9596 24.1328L17.5036 27.4288L17.5844 27.6117ZM25.1 24.2243V20.0642H24.9V24.2243H25.1ZM24.9594 19.9729L16.6074 23.6849L16.6886 23.8676L25.0406 20.1556L24.9594 19.9729ZM16.7368 23.7303C15.3124 20.9787 12.4631 19.1322 9.256 19.1322V19.3322C12.3849 19.3322 15.1676 21.1338 16.5592 23.8222L16.7368 23.7303ZM4.94 27.5202C4.94 26.3315 5.37697 25.3007 6.22271 24.455L6.08129 24.3135C5.19903 25.1958 4.74 26.277 4.74 27.5202H4.94ZM6.22271 24.455C7.06902 23.6087 8.06799 23.1722 9.256 23.1722V22.9723C8.012 22.9723 6.96297 23.4319 6.08129 24.3135L6.22271 24.455ZM9.256 23.1722C10.4772 23.1722 11.5078 23.6095 12.3533 24.455L12.4947 24.3135C11.6122 23.431 10.5308 22.9723 9.256 22.9723V23.1722ZM12.3533 24.455C13.198 25.2996 13.604 26.298 13.604 27.5202H13.804C13.804 26.2465 13.378 25.1969 12.4947 24.3135L12.3533 24.455ZM13.604 27.5202V32.8962H13.804V27.5202H13.604ZM13.704 32.7962H4.84V32.9962H13.704V32.7962ZM4.94 32.8962V27.5202H4.74V32.8962H4.94ZM14.088 2.66901L14.1587 2.73972L14.1597 2.73871L14.088 2.66901ZM10.728 8.397L10.8199 8.43639L10.8203 8.43546L10.728 8.397ZM10.12 9.837L10.2094 9.88172L10.2126 9.87537L10.2149 9.86862L10.12 9.837ZM9.544 10.989L9.63227 11.0361L9.63344 11.0337L9.544 10.989ZM8.872 12.013L8.94271 12.0837L8.872 12.013ZM7.944 1.83701L8.00726 1.91444L8.22448 1.737H7.944V1.83701ZM3.08 1.83701V1.737H3.03858L3.00929 1.7663L3.08 1.83701ZM2.44 14.445L2.51939 14.3842L2.51857 14.3831L2.44 14.445ZM11.592 14.733L11.6696 14.7961L11.6697 14.7959L11.592 14.733ZM12.936 12.749L13.0236 12.7972L12.936 12.749ZM14.152 10.189L14.243 10.2304L14.2436 10.2292L14.152 10.189ZM16.392 5.901L16.3116 5.84156L16.392 5.901ZM20.584 13.453L20.6724 13.5006L20.6759 13.4924L20.584 13.453ZM19.56 14.893L19.6331 14.9613L19.635 14.9592L19.56 14.893ZM18.632 15.885L18.6945 15.9631L18.7001 15.9586L18.705 15.9533L18.632 15.885ZM17.64 16.685L17.5745 16.6094L17.3719 16.785H17.64V16.685ZM22.472 16.685V16.785H22.51L22.5384 16.7597L22.472 16.685ZM22.76 16.429L22.8264 16.5037L22.8276 16.5027L22.76 16.429ZM24.328 14.189L24.4169 14.2348L24.418 14.2327L24.328 14.189ZM25.42 9.325C25.42 6.73339 24.7681 4.61258 23.5614 3.13767C22.3527 1.66034 20.5951 0.841003 18.408 0.841003V1.041C20.5409 1.041 22.2393 1.83766 23.4066 3.26432C24.5759 4.69342 25.22 6.76461 25.22 9.325H25.42ZM18.408 0.841003C16.6238 0.841003 15.157 1.42598 14.0163 2.59929L14.1597 2.73871C15.259 1.60802 16.6722 1.041 18.408 1.041V0.841003ZM14.0173 2.59828C12.8832 3.73243 11.7571 5.66718 10.6357 8.35854L10.8203 8.43546C11.9389 5.75082 13.0528 3.84557 14.1587 2.73972L14.0173 2.59828ZM10.6361 8.3576C10.3507 9.0235 10.1229 9.51214 10.0251 9.80537L10.2149 9.86862C10.3091 9.58586 10.5293 9.11449 10.8199 8.43639L10.6361 8.3576ZM10.0306 9.79228L9.45456 10.9443L9.63344 11.0337L10.2094 9.88172L10.0306 9.79228ZM9.45576 10.9419C9.19979 11.4219 8.98172 11.7619 8.80129 11.9423L8.94271 12.0837C9.14628 11.8801 9.37621 11.5161 9.63224 11.0361L9.45576 10.9419ZM8.80129 11.9423C8.42353 12.32 7.80789 12.745 7.176 12.745V12.945C7.88811 12.945 8.55246 12.474 8.94271 12.0837L8.80129 11.9423ZM7.176 12.745C6.40159 12.745 5.76722 12.3374 5.32167 11.5974C4.87416 10.8542 4.62 9.77802 4.62 8.461H4.42C4.42 9.79999 4.67783 10.9158 5.15033 11.7006C5.62478 12.4886 6.31841 12.945 7.176 12.945V12.745ZM4.62 8.461C4.62 5.93601 5.75435 3.75485 8.00726 1.91444L7.88073 1.75955C5.58965 3.63115 4.42 5.86599 4.42 8.461H4.62ZM7.944 1.737H3.08V1.937H7.944V1.737ZM3.00929 1.7663C1.38567 3.38991 0.579998 5.65826 0.579998 8.589H0.779999C0.779999 5.69574 1.57433 3.48409 3.15071 1.90771L3.00929 1.7663ZM0.579998 8.589C0.579998 11.005 1.16005 12.9808 2.36142 14.5069L2.51857 14.3831C1.35195 12.9012 0.779999 10.973 0.779999 8.589H0.579998ZM2.36061 14.5058C3.53239 16.0356 5.09831 16.785 7.08 16.785V16.585C5.15768 16.585 3.65161 15.8624 2.51939 14.3842L2.36061 14.5058ZM7.08 16.785C9.02327 16.785 10.5266 16.2003 11.6696 14.7961L11.5144 14.6699C10.4174 16.0177 8.97673 16.585 7.08 16.585V16.785ZM11.6697 14.7959C12.2173 14.1195 12.6686 13.4426 13.0236 12.7972L12.8484 12.7008C12.4994 13.3354 12.0547 14.0025 11.5143 14.6701L11.6697 14.7959ZM13.0236 12.7972C13.378 12.1529 13.7641 11.2841 14.243 10.2304L14.061 10.1476C13.5799 11.2059 13.198 12.0651 12.8484 12.7008L13.0236 12.7972ZM14.2436 10.2292C15.1712 8.11795 15.9355 6.68681 16.4724 5.96044L16.3116 5.84156C15.7605 6.58719 14.9888 8.03605 14.0604 10.1488L14.2436 10.2292ZM16.4724 5.96044C16.9997 5.24707 17.6751 4.881 18.504 4.881V4.681C17.6049 4.681 16.8723 5.08292 16.3116 5.84156L16.4724 5.96044ZM18.504 4.881C19.5052 4.881 20.2181 5.35522 20.6859 6.14783C21.1572 6.94626 21.38 8.07001 21.38 9.357H21.58C21.58 8.05199 21.3549 6.88774 20.8581 6.04617C20.3579 5.19877 19.5828 4.681 18.504 4.681V4.881ZM21.38 9.357C21.38 10.9704 20.8732 12.5244 20.4921 13.4136L20.6759 13.4924C21.0628 12.5896 21.58 11.0076 21.58 9.357H21.38ZM20.496 13.4056C20.2757 13.8146 19.9602 14.2883 19.485 14.8268L19.635 14.9592C20.1198 14.4097 20.4443 13.9234 20.672 13.5004L20.496 13.4056ZM19.487 14.8247L18.559 15.8167L18.705 15.9533L19.633 14.9613L19.487 14.8247ZM18.5695 15.8069C18.4136 15.9316 18.0563 16.1919 17.5745 16.6094L17.7055 16.7606C18.1837 16.3461 18.5304 16.0944 18.6945 15.9631L18.5695 15.8069ZM17.64 16.785H22.472V16.585H17.64V16.785ZM22.5384 16.7597L22.8264 16.5037L22.6936 16.3543L22.4056 16.6103L22.5384 16.7597ZM22.8276 16.5027C23.2229 16.1403 23.8694 15.2975 24.4169 14.2348L24.2391 14.1432C23.6986 15.1925 23.0651 16.0137 22.6924 16.3553L22.8276 16.5027ZM24.418 14.2327C24.9694 13.0974 25.42 11.2582 25.42 9.325H25.22C25.22 11.2318 24.7746 13.0406 24.2381 14.1453L24.418 14.2327Z"/>
</svg>
