<svg class='side-links__svg' width="26" height="114" viewBox="0 0 26 114" fill="none" xmlns="http://www.w3.org/2000/svg">
<path d="M0.999998 113.08H25V104.344C25 101.08 23.816 98.264 21.48 95.864C19.112 93.464 16.296 92.28 13 92.28C9.704 92.28 6.888 93.464 4.552 95.864C2.184 98.264 0.999998 101.08 0.999998 104.344V113.08ZM21.16 109.24H4.84V104.344C4.84 102.136 5.64 100.216 7.272 98.584C8.904 96.952 10.792 96.12 13 96.12C15.208 96.12 17.096 96.952 18.728 98.584C20.36 100.216 21.16 102.136 21.16 104.344V109.24ZM0.999998 73.4357V88.9237H25V73.4677H21.16V85.0837H13.864V75.4197H10.024V85.0837H4.84V73.4357H0.999998ZM25.32 63.2C25.32 58.048 22.728 54.816 18.408 54.816C16.648 54.816 15.208 55.392 14.088 56.544C12.968 57.664 11.848 59.584 10.728 62.272C10.44 62.944 10.216 63.424 10.12 63.712L9.544 64.864C9.288 65.344 9.064 65.696 8.872 65.888C8.488 66.272 7.848 66.72 7.176 66.72C5.544 66.72 4.52 64.992 4.52 62.336C4.52 59.776 5.672 57.568 7.944 55.712H3.08C1.48 57.312 0.679998 59.552 0.679998 62.464C0.679998 64.864 1.256 66.816 2.44 68.32C3.592 69.824 5.128 70.56 7.08 70.56C9 70.56 10.472 69.984 11.592 68.608C12.136 67.936 12.584 67.264 12.936 66.624C13.288 65.984 13.672 65.12 14.152 64.064C15.08 61.952 15.848 60.512 16.392 59.776C16.936 59.04 17.64 58.656 18.504 58.656C20.584 58.656 21.48 60.64 21.48 63.232C21.48 64.864 20.968 66.432 20.584 67.328C20.36 67.744 20.04 68.224 19.56 68.768L18.632 69.76C18.472 69.888 18.12 70.144 17.64 70.56H22.472L22.76 70.304C23.144 69.952 23.784 69.12 24.328 68.064C24.872 66.944 25.32 65.12 25.32 63.2ZM25 51.455V47.615H0.999998V51.455L25 51.455ZM4.52 31.9275C4.52 28.6955 5.992 26.1995 8.552 23.6075H3.816C1.736 25.9115 0.679998 28.6955 0.679998 31.9275C0.679998 35.4155 1.864 38.3595 4.264 40.7275C6.664 43.0635 9.576 44.2475 13 44.2475C16.424 44.2475 19.336 43.0635 21.736 40.7275C24.136 38.3595 25.32 35.4155 25.32 31.9275C25.32 28.6955 24.264 25.9115 22.184 23.6075H11.88V31.9275H15.56V27.4475H20.36C21.096 28.8235 21.48 30.3275 21.48 31.9275C21.48 34.2955 20.68 36.3115 19.048 37.9435C17.416 39.5755 15.4 40.4075 13 40.4075C10.6 40.4075 8.616 39.5755 6.984 37.9435C5.352 36.3115 4.52 34.2955 4.52 31.9275ZM18.152 4.75575L0.999998 16.0837V19.9237H25V16.0837H7.848L25 4.75575V0.915749H0.999998V4.75575H18.152Z"/>
<path d="M1 113.08H0.899998V113.18H1V113.08ZM25 113.08V113.18H25.1V113.08H25ZM21.48 95.864L21.5517 95.7942L21.5512 95.7938L21.48 95.864ZM4.552 95.864L4.62318 95.9342L4.62366 95.9337L4.552 95.864ZM21.16 109.24V109.34H21.26V109.24H21.16ZM4.84 109.24H4.74V109.34H4.84V109.24ZM1 113.18H25V112.98H1V113.18ZM25.1 113.08V104.344H24.9V113.08H25.1ZM25.1 104.344C25.1 101.053 23.905 98.212 21.5517 95.7943L21.4083 95.9337C23.727 98.316 24.9 101.107 24.9 104.344H25.1ZM21.5512 95.7938C19.1647 93.3751 16.3232 92.18 13 92.18V92.38C16.2688 92.38 19.0593 93.5529 21.4088 95.9342L21.5512 95.7938ZM13 92.18C9.67687 92.18 6.83507 93.375 4.48034 95.7943L4.62366 95.9337C6.94093 93.553 9.73113 92.38 13 92.38V92.18ZM4.48082 95.7938C2.09513 98.2117 0.899998 101.053 0.899998 104.344H1.1C1.1 101.107 2.27287 98.3163 4.62318 95.9342L4.48082 95.7938ZM0.899998 104.344V113.08H1.1V104.344H0.899998ZM21.16 109.14H4.84V109.34H21.16V109.14ZM4.94 109.24V104.344H4.74V109.24H4.94ZM4.94 104.344C4.94 102.163 5.72889 100.269 7.34271 98.6547L7.20129 98.5133C5.55111 100.163 4.74 102.109 4.74 104.344H4.94ZM7.34271 98.6547C8.95759 97.0398 10.8207 96.22 13 96.22V96.02C10.7632 96.02 8.85041 96.8642 7.20129 98.5133L7.34271 98.6547ZM13 96.22C15.1792 96.22 17.0424 97.0398 18.6573 98.6547L18.7987 98.5133C17.1496 96.8642 15.2367 96.02 13 96.02V96.22ZM18.6573 98.6547C20.2711 100.269 21.06 102.163 21.06 104.344H21.26C21.26 102.109 20.4489 100.163 18.7987 98.5133L18.6573 98.6547ZM21.06 104.344V109.24H21.26V104.344H21.06ZM1 73.4357V73.3358H0.899998V73.4357H1ZM1 88.9237H0.899998V89.0238H1V88.9237ZM25 88.9237V89.0238H25.1V88.9237H25ZM25 73.4678H25.1V73.3677H25V73.4678ZM21.16 73.4678V73.3677H21.06V73.4678H21.16ZM21.16 85.0837V85.1838H21.26V85.0837H21.16ZM13.864 85.0837H13.764V85.1838H13.864V85.0837ZM13.864 75.4198H13.964V75.3197H13.864V75.4198ZM10.024 75.4198V75.3197H9.924V75.4198H10.024ZM10.024 85.0837V85.1838H10.124V85.0837H10.024ZM4.84 85.0837H4.74V85.1838H4.84V85.0837ZM4.84 73.4357H4.94V73.3358H4.84V73.4357ZM0.899998 73.4357V88.9237H1.1V73.4357H0.899998ZM1 89.0238H25V88.8237H1V89.0238ZM25.1 88.9237V73.4678H24.9V88.9237H25.1ZM25 73.3677H21.16V73.5677H25V73.3677ZM21.06 73.4678V85.0837H21.26V73.4678H21.06ZM21.16 84.9837H13.864V85.1838H21.16V84.9837ZM13.964 85.0837V75.4198H13.764V85.0837H13.964ZM13.864 75.3197H10.024V75.5197H13.864V75.3197ZM9.924 75.4198V85.0837H10.124V75.4198H9.924ZM10.024 84.9837H4.84V85.1838H10.024V84.9837ZM4.94 85.0837V73.4357H4.74V85.0837H4.94ZM4.84 73.3358H1V73.5357H4.84V73.3358ZM14.088 56.544L14.1587 56.6147L14.1597 56.6137L14.088 56.544ZM10.728 62.272L10.8199 62.3114L10.8203 62.3105L10.728 62.272ZM10.12 63.712L10.2094 63.7567L10.2126 63.7504L10.2149 63.7436L10.12 63.712ZM9.544 64.864L9.63227 64.9111L9.63344 64.9087L9.544 64.864ZM8.872 65.888L8.94271 65.9587L8.872 65.888ZM7.944 55.712L8.00726 55.7894L8.22448 55.612H7.944V55.712ZM3.08 55.712V55.612H3.03858L3.00929 55.6413L3.08 55.712ZM2.44 68.32L2.51939 68.2592L2.51857 68.2581L2.44 68.32ZM11.592 68.608L11.6696 68.6711L11.6697 68.6709L11.592 68.608ZM12.936 66.624L13.0236 66.6722L12.936 66.624ZM14.152 64.064L14.243 64.1054L14.2436 64.1042L14.152 64.064ZM16.392 59.776L16.3116 59.7166L16.392 59.776ZM20.584 67.328L20.6724 67.3756L20.6759 67.3674L20.584 67.328ZM19.56 68.768L19.6331 68.8363L19.635 68.8342L19.56 68.768ZM18.632 69.76L18.6945 69.8381L18.7001 69.8336L18.705 69.8283L18.632 69.76ZM17.64 70.56L17.5745 70.4844L17.3719 70.66H17.64V70.56ZM22.472 70.56V70.66H22.51L22.5384 70.6347L22.472 70.56ZM22.76 70.304L22.8264 70.3787L22.8276 70.3777L22.76 70.304ZM24.328 68.064L24.4169 68.1098L24.418 68.1077L24.328 68.064ZM25.42 63.2C25.42 60.6084 24.7681 58.4876 23.5614 57.0127C22.3527 55.5353 20.5951 54.716 18.408 54.716V54.916C20.5409 54.916 22.2393 55.7127 23.4066 57.1393C24.5759 58.5684 25.22 60.6396 25.22 63.2H25.42ZM18.408 54.716C16.6238 54.716 15.157 55.301 14.0163 56.4743L14.1597 56.6137C15.259 55.483 16.6722 54.916 18.408 54.916V54.716ZM14.0173 56.4733C12.8832 57.6074 11.7571 59.5422 10.6357 62.2335L10.8203 62.3105C11.9389 59.6258 13.0528 57.7206 14.1587 56.6147L14.0173 56.4733ZM10.6361 62.2326C10.3507 62.8985 10.1229 63.3871 10.0251 63.6804L10.2149 63.7436C10.3091 63.4609 10.5293 62.9895 10.8199 62.3114L10.6361 62.2326ZM10.0306 63.6673L9.45456 64.8193L9.63344 64.9087L10.2094 63.7567L10.0306 63.6673ZM9.45576 64.8169C9.19979 65.2969 8.98172 65.6369 8.80129 65.8173L8.94271 65.9587C9.14628 65.7551 9.37621 65.3911 9.63224 64.9111L9.45576 64.8169ZM8.80129 65.8173C8.42353 66.195 7.80789 66.62 7.176 66.62V66.82C7.88811 66.82 8.55246 66.349 8.94271 65.9587L8.80129 65.8173ZM7.176 66.62C6.40159 66.62 5.76722 66.2124 5.32167 65.4724C4.87416 64.7292 4.62 63.653 4.62 62.336H4.42C4.42 63.675 4.67783 64.7908 5.15033 65.5756C5.62478 66.3636 6.31841 66.82 7.176 66.82V66.62ZM4.62 62.336C4.62 59.811 5.75435 57.6299 8.00726 55.7894L7.88073 55.6346C5.58965 57.5061 4.42 59.741 4.42 62.336H4.62ZM7.944 55.612H3.08V55.812H7.944V55.612ZM3.00929 55.6413C1.38567 57.2649 0.579998 59.5333 0.579998 62.464H0.779999C0.779999 59.5707 1.57433 57.3591 3.15071 55.7827L3.00929 55.6413ZM0.579998 62.464C0.579998 64.88 1.16005 66.8558 2.36142 68.3819L2.51857 68.2581C1.35195 66.7762 0.779999 64.848 0.779999 62.464H0.579998ZM2.36061 68.3808C3.53239 69.9106 5.09831 70.66 7.08 70.66V70.46C5.15768 70.46 3.65161 69.7374 2.51939 68.2592L2.36061 68.3808ZM7.08 70.66C9.02327 70.66 10.5266 70.0753 11.6696 68.6711L11.5144 68.5449C10.4174 69.8927 8.97673 70.46 7.08 70.46V70.66ZM11.6697 68.6709C12.2173 67.9945 12.6686 67.3176 13.0236 66.6722L12.8484 66.5758C12.4994 67.2104 12.0547 67.8775 11.5143 68.5451L11.6697 68.6709ZM13.0236 66.6722C13.378 66.0279 13.7641 65.1591 14.243 64.1054L14.061 64.0226C13.5799 65.0809 13.198 65.9401 12.8484 66.5758L13.0236 66.6722ZM14.2436 64.1042C15.1712 61.993 15.9355 60.5618 16.4724 59.8354L16.3116 59.7166C15.7605 60.4622 14.9888 61.911 14.0604 64.0238L14.2436 64.1042ZM16.4724 59.8354C16.9997 59.1221 17.6751 58.756 18.504 58.756V58.556C17.6049 58.556 16.8723 58.9579 16.3116 59.7166L16.4724 59.8354ZM18.504 58.756C19.5052 58.756 20.2181 59.2302 20.6859 60.0228C21.1572 60.8213 21.38 61.945 21.38 63.232H21.58C21.58 61.927 21.3549 60.7627 20.8581 59.9212C20.3579 59.0738 19.5828 58.556 18.504 58.556V58.756ZM21.38 63.232C21.38 64.8454 20.8732 66.3994 20.4921 67.2886L20.6759 67.3674C21.0628 66.4646 21.58 64.8826 21.58 63.232H21.38ZM20.496 67.2806C20.2757 67.6896 19.9602 68.1633 19.485 68.7018L19.635 68.8342C20.1198 68.2847 20.4443 67.7984 20.672 67.3754L20.496 67.2806ZM19.487 68.6997L18.559 69.6917L18.705 69.8283L19.633 68.8363L19.487 68.6997ZM18.5695 69.6819C18.4136 69.8066 18.0563 70.0669 17.5745 70.4844L17.7055 70.6356C18.1837 70.2211 18.5304 69.9693 18.6945 69.8381L18.5695 69.6819ZM17.64 70.66H22.472V70.46H17.64V70.66ZM22.5384 70.6347L22.8264 70.3787L22.6936 70.2293L22.4056 70.4853L22.5384 70.6347ZM22.8276 70.3777C23.2229 70.0153 23.8694 69.1725 24.4169 68.1098L24.2391 68.0182C23.6986 69.0675 23.0651 69.8887 22.6924 70.2303L22.8276 70.3777ZM24.418 68.1077C24.9694 66.9724 25.42 65.1332 25.42 63.2H25.22C25.22 65.1068 24.7746 66.9156 24.2381 68.0203L24.418 68.1077ZM25 51.455V51.555H25.1V51.455H25ZM25 47.615H25.1V47.515H25V47.615ZM1 47.615V47.515H0.899998V47.615H1ZM1 51.455H0.899998V51.555H1V51.455ZM25.1 51.455V47.615H24.9V51.455H25.1ZM25 47.515H1V47.715H25V47.515ZM0.899998 47.615V51.455H1.1V47.615H0.899998ZM1 51.555L25 51.555V51.355L1 51.355V51.555ZM8.552 23.6075L8.62315 23.6778L8.79132 23.5075H8.552V23.6075ZM3.816 23.6075V23.5075H3.77155L3.74177 23.5405L3.816 23.6075ZM4.264 40.7275L4.19376 40.7987L4.19425 40.7992L4.264 40.7275ZM21.736 40.7275L21.8058 40.7992L21.8062 40.7987L21.736 40.7275ZM22.184 23.6075L22.2582 23.5405L22.2284 23.5075H22.184V23.6075ZM11.88 23.6075V23.5075H11.78V23.6075H11.88ZM11.88 31.9275H11.78V32.0275H11.88V31.9275ZM15.56 31.9275V32.0275H15.66V31.9275H15.56ZM15.56 27.4475V27.3475H15.46V27.4475H15.56ZM20.36 27.4475L20.4482 27.4003L20.4199 27.3475H20.36V27.4475ZM19.048 37.9435L19.1187 38.0142L19.048 37.9435ZM4.62 31.9275C4.62 28.7323 6.07261 26.2602 8.62315 23.6778L8.48085 23.5372C5.91138 26.1388 4.42 28.6587 4.42 31.9275H4.62ZM8.552 23.5075H3.816V23.7075H8.552V23.5075ZM3.74177 23.5405C1.64459 25.8635 0.579998 28.6716 0.579998 31.9275H0.779999C0.779999 28.7194 1.8274 25.9595 3.89022 23.6745L3.74177 23.5405ZM0.579998 31.9275C0.579998 35.4407 1.77366 38.4109 4.19376 40.7987L4.33424 40.6563C1.95433 38.3082 0.779999 35.3903 0.779999 31.9275H0.579998ZM4.19425 40.7992C6.61314 43.1535 9.55025 44.3475 13 44.3475V44.1475C9.60175 44.1475 6.71486 42.9735 4.33375 40.6558L4.19425 40.7992ZM13 44.3475C16.4497 44.3475 19.3869 43.1535 21.8057 40.7992L21.6663 40.6558C19.2851 42.9735 16.3983 44.1475 13 44.1475V44.3475ZM21.8062 40.7987C24.2263 38.4109 25.42 35.4407 25.42 31.9275H25.22C25.22 35.3903 24.0457 38.3082 21.6658 40.6563L21.8062 40.7987ZM25.42 31.9275C25.42 28.6716 24.3554 25.8635 22.2582 23.5405L22.1098 23.6745C24.1726 25.9595 25.22 28.7194 25.22 31.9275H25.42ZM22.184 23.5075H11.88V23.7075H22.184V23.5075ZM11.78 23.6075V31.9275H11.98V23.6075H11.78ZM11.88 32.0275H15.56V31.8275H11.88V32.0275ZM15.66 31.9275V27.4475H15.46V31.9275H15.66ZM15.56 27.5475H20.36V27.3475H15.56V27.5475ZM20.2718 27.4947C21.0001 28.8562 21.38 30.344 21.38 31.9275H21.58C21.58 30.311 21.1919 28.7908 20.4482 27.4003L20.2718 27.4947ZM21.38 31.9275C21.38 34.2705 20.5895 36.2606 18.9773 37.8728L19.1187 38.0142C20.7705 36.3624 21.58 34.3205 21.58 31.9275H21.38ZM18.9773 37.8728C17.3645 39.4856 15.3742 40.3075 13 40.3075V40.5075C15.4258 40.5075 17.4675 39.6654 19.1187 38.0142L18.9773 37.8728ZM13 40.3075C10.6262 40.3075 8.66776 39.4858 7.05471 37.8728L6.91329 38.0142C8.56424 39.6652 10.5737 40.5075 13 40.5075V40.3075ZM7.05471 37.8728C5.4418 36.2599 4.62 34.2695 4.62 31.9275H4.42C4.42 34.3215 5.2622 36.3631 6.91329 38.0142L7.05471 37.8728ZM18.152 4.75575L18.2071 4.8392L18.4849 4.65575H18.152V4.75575ZM1 16.0837L0.944889 16.0003L0.899998 16.03V16.0837H1ZM1 19.9238H0.899998V20.0238H1V19.9238ZM25 19.9238V20.0238H25.1V19.9238H25ZM25 16.0837H25.1V15.9837H25V16.0837ZM7.848 16.0837L7.79289 16.0003L7.51513 16.1837H7.848V16.0837ZM25 4.75575L25.0551 4.8392L25.1 4.80955V4.75575H25ZM25 0.915749H25.1V0.81575H25V0.915749ZM1 0.915749V0.81575H0.899998V0.915749H1ZM1 4.75575H0.899998V4.85575H1V4.75575ZM18.0969 4.6723L0.944889 16.0003L1.05511 16.1672L18.2071 4.8392L18.0969 4.6723ZM0.899998 16.0837V19.9238H1.1V16.0837H0.899998ZM1 20.0238H25V19.8238H1V20.0238ZM25.1 19.9238V16.0837H24.9V19.9238H25.1ZM25 15.9837H7.848V16.1837H25V15.9837ZM7.90311 16.1672L25.0551 4.8392L24.9449 4.6723L7.79289 16.0003L7.90311 16.1672ZM25.1 4.75575V0.915749H24.9V4.75575H25.1ZM25 0.81575H1V1.01575H25V0.81575ZM0.899998 0.915749V4.75575H1.1V0.915749H0.899998ZM1 4.85575H18.152V4.65575H1V4.85575Z"/>
</svg>
