<svg class='side-links__svg' width="25" height="136" viewBox="0 0 25 136" fill="none" xmlns="http://www.w3.org/2000/svg">
<path class='side-links__svg-path' d="M0.499998 120.124V135.58H24.5V131.74H13.364V122.076H9.524V131.74H4.34V120.124H0.499998ZM24.5 99.1392L0.499998 107.843V112.899L24.5 121.571V117.507L17.044 114.883V105.859L24.5 103.235V99.1392ZM4.34 110.371L13.204 107.235V113.507L4.34 110.371ZM24.82 89.7C24.82 84.548 22.228 81.316 17.908 81.316C16.148 81.316 14.708 81.892 13.588 83.044C12.468 84.164 11.348 86.084 10.228 88.772C9.94 89.444 9.716 89.924 9.62 90.212L9.044 91.364C8.788 91.844 8.564 92.196 8.372 92.388C7.988 92.772 7.348 93.22 6.676 93.22C5.044 93.22 4.02 91.492 4.02 88.836C4.02 86.276 5.172 84.068 7.444 82.212H2.58C0.98 83.812 0.179998 86.052 0.179998 88.964C0.179998 91.364 0.755999 93.316 1.94 94.82C3.092 96.324 4.628 97.06 6.58 97.06C8.5 97.06 9.972 96.484 11.092 95.108C11.636 94.436 12.084 93.764 12.436 93.124C12.788 92.484 13.172 91.62 13.652 90.564C14.58 88.452 15.348 87.012 15.892 86.276C16.436 85.54 17.14 85.156 18.004 85.156C20.084 85.156 20.98 87.14 20.98 89.732C20.98 91.364 20.468 92.932 20.084 93.828C19.86 94.244 19.54 94.724 19.06 95.268L18.132 96.26C17.972 96.388 17.62 96.644 17.14 97.06H21.972L22.26 96.804C22.644 96.452 23.284 95.62 23.828 94.564C24.372 93.444 24.82 91.62 24.82 89.7ZM10.58 62.787V74.115H0.499998V77.955H24.5V74.115H14.42V62.787H24.5V58.947H0.499998V62.787H10.58ZM24.5 55.1112V51.2712H0.499998V55.1112H24.5ZM24.82 35.5837C24.82 32.0957 23.636 29.1517 21.236 26.8157C18.836 24.4477 15.924 23.2637 12.5 23.2637C9.076 23.2637 6.164 24.4477 3.764 26.8157C1.364 29.1517 0.179998 32.0957 0.179998 35.5837C0.179998 39.0717 1.364 41.9837 3.764 44.3517C6.164 46.7197 9.076 47.9037 12.5 47.9037C15.924 47.9037 18.836 46.7197 21.236 44.3517C23.636 41.9837 24.82 39.0717 24.82 35.5837ZM20.98 35.5837C20.98 37.9197 20.148 39.9358 18.516 41.5997C16.852 43.2317 14.836 44.0637 12.5 44.0637C10.164 44.0637 8.148 43.2317 6.516 41.5997C4.852 39.9358 4.02 37.9197 4.02 35.5837C4.02 33.2157 4.852 31.1997 6.516 29.5677C8.148 27.9357 10.164 27.1037 12.5 27.1037C14.836 27.1037 16.852 27.9357 18.516 29.5677C20.148 31.1997 20.98 33.2157 20.98 35.5837ZM17.652 4.7245L0.499998 16.0525V19.8925H24.5V16.0525H7.348L24.5 4.7245V0.884499H0.499998V4.7245H17.652Z"/>
<path class='side-links__svg-path' d="M0.5 120.124V120.024H0.399998V120.124H0.5ZM0.5 135.58H0.399998V135.68H0.5V135.58ZM24.5 135.58V135.68H24.6V135.58H24.5ZM24.5 131.74H24.6V131.64H24.5V131.74ZM13.364 131.74H13.264V131.84H13.364V131.74ZM13.364 122.076H13.464V121.976H13.364V122.076ZM9.524 122.076V121.976H9.424V122.076H9.524ZM9.524 131.74V131.84H9.624V131.74H9.524ZM4.34 131.74H4.24V131.84H4.34V131.74ZM4.34 120.124H4.44V120.024H4.34V120.124ZM0.399998 120.124V135.58H0.599998V120.124H0.399998ZM0.5 135.68H24.5V135.48H0.5V135.68ZM24.6 135.58V131.74H24.4V135.58H24.6ZM24.5 131.64H13.364V131.84H24.5V131.64ZM13.464 131.74V122.076H13.264V131.74H13.464ZM13.364 121.976H9.524V122.176H13.364V121.976ZM9.424 122.076V131.74H9.624V122.076H9.424ZM9.524 131.64H4.34V131.84H9.524V131.64ZM4.44 131.74V120.124H4.24V131.74H4.44ZM4.34 120.024H0.5V120.224H4.34V120.024ZM24.5 99.1393H24.6V98.9966L24.4659 99.0452L24.5 99.1393ZM0.5 107.843L0.465904 107.749L0.399998 107.773V107.843H0.5ZM0.5 112.899H0.399998V112.969L0.466015 112.993L0.5 112.899ZM24.5 121.571L24.466 121.665L24.6 121.714V121.571H24.5ZM24.5 117.507H24.6V117.436L24.5332 117.413L24.5 117.507ZM17.044 114.883H16.944V114.954L17.0108 114.978L17.044 114.883ZM17.044 105.859L17.0108 105.765L16.944 105.788V105.859H17.044ZM24.5 103.235L24.5332 103.33L24.6 103.306V103.235H24.5ZM4.34 110.371L4.30664 110.277L4.04018 110.371L4.30664 110.466L4.34 110.371ZM13.204 107.235H13.304V107.094L13.1706 107.141L13.204 107.235ZM13.204 113.507L13.1706 113.602L13.304 113.649V113.507H13.204ZM24.4659 99.0452L0.465904 107.749L0.534092 107.937L24.5341 99.2333L24.4659 99.0452ZM0.399998 107.843V112.899H0.599998V107.843H0.399998ZM0.466015 112.993L24.466 121.665L24.534 121.477L0.533981 112.805L0.466015 112.993ZM24.6 121.571V117.507H24.4V121.571H24.6ZM24.5332 117.413L17.0772 114.789L17.0108 114.978L24.4668 117.602L24.5332 117.413ZM17.144 114.883V105.859H16.944V114.883H17.144ZM17.0772 105.954L24.5332 103.33L24.4668 103.141L17.0108 105.765L17.0772 105.954ZM24.6 103.235V99.1393H24.4V103.235H24.6ZM4.37335 110.466L13.2374 107.33L13.1706 107.141L4.30664 110.277L4.37335 110.466ZM13.104 107.235V113.507H13.304V107.235H13.104ZM13.2374 113.413L4.37335 110.277L4.30664 110.466L13.1706 113.602L13.2374 113.413ZM13.588 83.044L13.6587 83.1147L13.6597 83.1137L13.588 83.044ZM10.228 88.772L10.3199 88.8114L10.3203 88.8105L10.228 88.772ZM9.62 90.212L9.70944 90.2567L9.71262 90.2504L9.71487 90.2436L9.62 90.212ZM9.044 91.364L9.13227 91.4111L9.13344 91.4087L9.044 91.364ZM8.372 92.388L8.44271 92.4587L8.372 92.388ZM7.444 82.212L7.50726 82.2894L7.72448 82.112H7.444V82.212ZM2.58 82.212V82.112H2.53858L2.50929 82.1413L2.58 82.212ZM1.94 94.82L2.01939 94.7592L2.01857 94.7581L1.94 94.82ZM11.092 95.108L11.1696 95.1711L11.1697 95.1709L11.092 95.108ZM12.436 93.124L12.5236 93.1722L12.436 93.124ZM13.652 90.564L13.743 90.6054L13.7436 90.6042L13.652 90.564ZM15.892 86.276L15.8116 86.2166L15.892 86.276ZM20.084 93.828L20.1724 93.8756L20.1759 93.8674L20.084 93.828ZM19.06 95.268L19.1331 95.3363L19.135 95.3342L19.06 95.268ZM18.132 96.26L18.1945 96.3381L18.2001 96.3336L18.205 96.3283L18.132 96.26ZM17.14 97.06L17.0745 96.9844L16.8719 97.16H17.14V97.06ZM21.972 97.06V97.16H22.01L22.0384 97.1347L21.972 97.06ZM22.26 96.804L22.3264 96.8787L22.3276 96.8777L22.26 96.804ZM23.828 94.564L23.9169 94.6098L23.918 94.6077L23.828 94.564ZM24.92 89.7C24.92 87.1084 24.2681 84.9876 23.0614 83.5127C21.8527 82.0353 20.0951 81.216 17.908 81.216V81.416C20.0409 81.416 21.7393 82.2127 22.9066 83.6393C24.0759 85.0684 24.72 87.1396 24.72 89.7H24.92ZM17.908 81.216C16.1238 81.216 14.657 81.801 13.5163 82.9743L13.6597 83.1137C14.759 81.983 16.1722 81.416 17.908 81.416V81.216ZM13.5173 82.9733C12.3832 84.1074 11.2571 86.0422 10.1357 88.7335L10.3203 88.8105C11.4389 86.1258 12.5528 84.2206 13.6587 83.1147L13.5173 82.9733ZM10.1361 88.7326C9.8507 89.3985 9.62288 89.8871 9.52513 90.1804L9.71487 90.2436C9.80912 89.9609 10.0293 89.4895 10.3199 88.8114L10.1361 88.7326ZM9.53056 90.1673L8.95456 91.3193L9.13344 91.4087L9.70944 90.2567L9.53056 90.1673ZM8.95576 91.3169C8.69979 91.7969 8.48172 92.1369 8.30129 92.3173L8.44271 92.4587C8.64628 92.2551 8.87621 91.8911 9.13224 91.4111L8.95576 91.3169ZM8.30129 92.3173C7.92353 92.695 7.30789 93.12 6.676 93.12V93.32C7.38811 93.32 8.05246 92.849 8.44271 92.4587L8.30129 92.3173ZM6.676 93.12C5.90159 93.12 5.26722 92.7124 4.82167 91.9724C4.37416 91.2292 4.12 90.153 4.12 88.836H3.92C3.92 90.175 4.17783 91.2908 4.65033 92.0756C5.12478 92.8636 5.81841 93.32 6.676 93.32V93.12ZM4.12 88.836C4.12 86.311 5.25435 84.1299 7.50726 82.2894L7.38073 82.1346C5.08965 84.0061 3.92 86.241 3.92 88.836H4.12ZM7.444 82.112H2.58V82.312H7.444V82.112ZM2.50929 82.1413C0.88567 83.7649 0.079998 86.0333 0.079998 88.964H0.279999C0.279999 86.0707 1.07433 83.8591 2.65071 82.2827L2.50929 82.1413ZM0.079998 88.964C0.079998 91.38 0.660046 93.3558 1.86142 94.8819L2.01857 94.7581C0.851952 93.2762 0.279999 91.348 0.279999 88.964H0.079998ZM1.86061 94.8808C3.03239 96.4106 4.59831 97.16 6.58 97.16V96.96C4.65768 96.96 3.15161 96.2374 2.01939 94.7592L1.86061 94.8808ZM6.58 97.16C8.52327 97.16 10.0266 96.5753 11.1696 95.1711L11.0144 95.0449C9.91735 96.3927 8.47673 96.96 6.58 96.96V97.16ZM11.1697 95.1709C11.7173 94.4945 12.1686 93.8176 12.5236 93.1722L12.3484 93.0758C11.9994 93.7104 11.5547 94.3775 11.0143 95.0451L11.1697 95.1709ZM12.5236 93.1722C12.878 92.5279 13.2641 91.6591 13.743 90.6054L13.561 90.5226C13.0799 91.5809 12.698 92.4401 12.3484 93.0758L12.5236 93.1722ZM13.7436 90.6042C14.6712 88.493 15.4355 87.0618 15.9724 86.3354L15.8116 86.2166C15.2605 86.9622 14.4888 88.411 13.5604 90.5238L13.7436 90.6042ZM15.9724 86.3354C16.4997 85.6221 17.1751 85.256 18.004 85.256V85.056C17.1049 85.056 16.3723 85.4579 15.8116 86.2166L15.9724 86.3354ZM18.004 85.256C19.0052 85.256 19.7181 85.7302 20.1859 86.5228C20.6572 87.3213 20.88 88.445 20.88 89.732H21.08C21.08 88.427 20.8549 87.2627 20.3581 86.4212C19.8579 85.5738 19.0828 85.056 18.004 85.056V85.256ZM20.88 89.732C20.88 91.3454 20.3732 92.8994 19.9921 93.7886L20.1759 93.8674C20.5628 92.9646 21.08 91.3826 21.08 89.732H20.88ZM19.996 93.7806C19.7757 94.1896 19.4602 94.6633 18.985 95.2018L19.135 95.3342C19.6198 94.7847 19.9443 94.2984 20.172 93.8754L19.996 93.7806ZM18.987 95.1997L18.059 96.1917L18.205 96.3283L19.133 95.3363L18.987 95.1997ZM18.0695 96.1819C17.9136 96.3066 17.5563 96.5669 17.0745 96.9844L17.2055 97.1356C17.6837 96.7211 18.0304 96.4693 18.1945 96.3381L18.0695 96.1819ZM17.14 97.16H21.972V96.96H17.14V97.16ZM22.0384 97.1347L22.3264 96.8787L22.1936 96.7293L21.9056 96.9853L22.0384 97.1347ZM22.3276 96.8777C22.7229 96.5153 23.3694 95.6725 23.9169 94.6098L23.7391 94.5182C23.1986 95.5675 22.5651 96.3887 22.1924 96.7303L22.3276 96.8777ZM23.918 94.6077C24.4694 93.4724 24.92 91.6332 24.92 89.7H24.72C24.72 91.6068 24.2746 93.4156 23.7381 94.5203L23.918 94.6077ZM10.58 62.787H10.68V62.687H10.58V62.787ZM10.58 74.115V74.215H10.68V74.115H10.58ZM0.5 74.115V74.015H0.399998V74.115H0.5ZM0.5 77.955H0.399998V78.055H0.5V77.955ZM24.5 77.955V78.055H24.6V77.955H24.5ZM24.5 74.115H24.6V74.015H24.5V74.115ZM14.42 74.115H14.32V74.215H14.42V74.115ZM14.42 62.787V62.687H14.32V62.787H14.42ZM24.5 62.787V62.887H24.6V62.787H24.5ZM24.5 58.947H24.6V58.847H24.5V58.947ZM0.5 58.947V58.847H0.399998V58.947H0.5ZM0.5 62.787H0.399998V62.887H0.5V62.787ZM10.48 62.787V74.115H10.68V62.787H10.48ZM10.58 74.015H0.5V74.215H10.58V74.015ZM0.399998 74.115V77.955H0.599998V74.115H0.399998ZM0.5 78.055H24.5V77.855H0.5V78.055ZM24.6 77.955V74.115H24.4V77.955H24.6ZM24.5 74.015H14.42V74.215H24.5V74.015ZM14.52 74.115V62.787H14.32V74.115H14.52ZM14.42 62.887H24.5V62.687H14.42V62.887ZM24.6 62.787V58.947H24.4V62.787H24.6ZM24.5 58.847H0.5V59.047H24.5V58.847ZM0.399998 58.947V62.787H0.599998V58.947H0.399998ZM0.5 62.887H10.58V62.687H0.5V62.887ZM24.5 55.1113V55.2113H24.6V55.1113H24.5ZM24.5 51.2712H24.6V51.1712H24.5V51.2712ZM0.5 51.2712V51.1712H0.399998V51.2712H0.5ZM0.5 55.1113H0.399998V55.2113H0.5V55.1113ZM24.6 55.1113V51.2712H24.4V55.1113H24.6ZM24.5 51.1712H0.5V51.3712H24.5V51.1712ZM0.399998 51.2712V55.1113H0.599998V51.2712H0.399998ZM0.5 55.2113H24.5V55.0113H0.5V55.2113ZM21.236 26.8158L21.1658 26.8869L21.1663 26.8874L21.236 26.8158ZM3.764 26.8158L3.83375 26.8874L3.83424 26.8869L3.764 26.8158ZM3.764 44.3518L3.83424 44.2806L3.764 44.3518ZM21.236 44.3518L21.1658 44.2806L21.236 44.3518ZM18.516 41.5997L18.586 41.6712L18.5874 41.6698L18.516 41.5997ZM6.516 29.5677L6.58602 29.6391L6.58671 29.6385L6.516 29.5677ZM18.516 29.5677L18.5867 29.497L18.586 29.4964L18.516 29.5677ZM24.92 35.5837C24.92 32.0706 23.7264 29.1002 21.3057 26.7441L21.1663 26.8874C23.5456 29.2033 24.72 32.1208 24.72 35.5837H24.92ZM21.3062 26.7446C18.8872 24.3578 15.9498 23.1637 12.5 23.1637V23.3637C15.8982 23.3637 18.7848 24.5377 21.1658 26.8869L21.3062 26.7446ZM12.5 23.1637C9.05017 23.1637 6.1128 24.3578 3.69376 26.7446L3.83424 26.8869C6.2152 24.5377 9.10183 23.3637 12.5 23.3637V23.1637ZM3.69425 26.7441C1.2736 29.1002 0.079998 32.0706 0.079998 35.5837H0.279999C0.279999 32.1208 1.4544 29.2033 3.83375 26.8874L3.69425 26.7441ZM0.079998 35.5837C0.079998 39.0973 1.27386 42.0353 3.69376 44.4229L3.83424 44.2806C1.45414 41.9322 0.279999 39.0462 0.279999 35.5837H0.079998ZM3.69376 44.4229C6.1128 46.8097 9.05017 48.0038 12.5 48.0038V47.8037C9.10183 47.8037 6.2152 46.6298 3.83424 44.2806L3.69376 44.4229ZM12.5 48.0038C15.9498 48.0038 18.8872 46.8097 21.3062 44.4229L21.1658 44.2806C18.7848 46.6298 15.8982 47.8037 12.5 47.8037V48.0038ZM21.3062 44.4229C23.7261 42.0353 24.92 39.0973 24.92 35.5837H24.72C24.72 39.0462 23.5459 41.9322 21.1658 44.2806L21.3062 44.4229ZM20.88 35.5837C20.88 37.8933 20.0584 39.8843 18.4446 41.5297L18.5874 41.6698C20.2376 39.9872 21.08 37.9462 21.08 35.5837H20.88ZM18.446 41.5284C16.8005 43.1422 14.8096 43.9638 12.5 43.9638V44.1637C14.8624 44.1637 16.9035 43.3213 18.586 41.6711L18.446 41.5284ZM12.5 43.9638C10.1902 43.9638 8.19976 43.1421 6.58671 41.529L6.44529 41.6705C8.09623 43.3214 10.1378 44.1637 12.5 44.1637V43.9638ZM6.58671 41.529C4.94145 39.8838 4.12 37.8932 4.12 35.5837H3.92C3.92 37.9463 4.76255 39.9877 6.44529 41.6705L6.58671 41.529ZM4.12 35.5837C4.12 33.2419 4.94168 31.2519 6.58602 29.6391L6.44598 29.4964C4.76232 31.1476 3.92 33.1896 3.92 35.5837H4.12ZM6.58671 29.6385C8.19976 28.0254 10.1902 27.2038 12.5 27.2038V27.0037C10.1378 27.0037 8.09623 27.8461 6.44529 29.497L6.58671 29.6385ZM12.5 27.2038C14.8096 27.2038 16.8005 28.0253 18.446 29.6391L18.586 29.4964C16.9035 27.8462 14.8624 27.0037 12.5 27.0037V27.2038ZM18.4453 29.6385C20.0582 31.2514 20.88 33.2418 20.88 35.5837H21.08C21.08 33.1897 20.2378 31.1481 18.5867 29.497L18.4453 29.6385ZM17.652 4.7245L17.7071 4.80794L17.9849 4.6245H17.652V4.7245ZM0.5 16.0525L0.444889 15.9691L0.399998 15.9987V16.0525H0.5ZM0.5 19.8925H0.399998V19.9925H0.5V19.8925ZM24.5 19.8925V19.9925H24.6V19.8925H24.5ZM24.5 16.0525H24.6V15.9525H24.5V16.0525ZM7.348 16.0525L7.29289 15.9691L7.01513 16.1525H7.348V16.0525ZM24.5 4.7245L24.5551 4.80794L24.6 4.77829V4.7245H24.5ZM24.5 0.884491H24.6V0.7845H24.5V0.884491ZM0.5 0.884491V0.7845H0.399998V0.884491H0.5ZM0.5 4.7245H0.399998V4.82449H0.5V4.7245ZM17.5969 4.64105L0.444889 15.9691L0.555107 16.1359L17.7071 4.80794L17.5969 4.64105ZM0.399998 16.0525V19.8925H0.599998V16.0525H0.399998ZM0.5 19.9925H24.5V19.7925H0.5V19.9925ZM24.6 19.8925V16.0525H24.4V19.8925H24.6ZM24.5 15.9525H7.348V16.1525H24.5V15.9525ZM7.40311 16.1359L24.5551 4.80794L24.4449 4.64105L7.29289 15.9691L7.40311 16.1359ZM24.6 4.7245V0.884491H24.4V4.7245H24.6ZM24.5 0.7845H0.5V0.984497H24.5V0.7845ZM0.399998 0.884491V4.7245H0.599998V0.884491H0.399998ZM0.5 4.82449H17.652V4.6245H0.5V4.82449Z"/>
</svg>
