<svg width="1862" height="641" viewBox="0 0 1862 641" fill="none" xmlns="http://www.w3.org/2000/svg">
  <path d="M148.8 337C116.4 373 88 412.2 64 455V337H1.37091e-06V637H64C65.2 600.6 75.2 563 94 524.2L160.8 637H235.6L130.8 462.2C141.2 447.4 149.6 435.4 161.6 421.4C170 410.6 173.6 406.6 183.2 395.4L193.6 383.4L204.8 371L214.8 359.8L225.6 348.2L235.6 337H148.8ZM371.806 641C411.406 641 443.806 626.2 469.406 596.6C495.406 567 508.206 530.6 508.206 487C508.206 443.4 495.406 406.6 469.406 377.4C443.806 347.8 411.406 333 371.806 333C332.606 333 300.206 347.8 274.206 377.4C248.606 407 235.806 443.4 235.806 487C235.806 530.6 248.606 567 274.206 596.6C300.206 626.2 332.606 641 371.806 641ZM371.806 577C351.406 577 334.606 568.6 320.606 551.4C306.606 534.2 299.806 512.6 299.806 487C299.806 461.4 306.606 440.2 320.606 423C334.606 405.8 351.406 397 371.806 397C392.206 397 409.406 405.4 423.406 422.6C437.406 439.8 444.206 461 444.206 487C444.206 513 437.406 534.2 423.406 551.4C409.406 568.6 392.206 577 371.806 577ZM546.094 337V637H610.094V555.4H655.694C684.494 555.4 708.894 545 729.294 524.2C749.694 503 760.094 477 760.094 446.2C760.094 415 750.094 389 729.694 368.2C709.294 347.4 684.894 337 655.694 337H546.094ZM610.094 491.4V401H655.694C678.494 401 696.094 420.2 696.094 446.2C696.094 472.2 678.494 491.4 655.694 491.4H610.094ZM925.322 641C964.922 641 997.322 626.2 1022.92 596.6C1048.92 567 1061.72 530.6 1061.72 487C1061.72 443.4 1048.92 406.6 1022.92 377.4C997.322 347.8 964.922 333 925.322 333C886.122 333 853.722 347.8 827.722 377.4C802.122 407 789.322 443.4 789.322 487C789.322 530.6 802.122 567 827.722 596.6C853.722 626.2 886.122 641 925.322 641ZM925.322 577C904.922 577 888.122 568.6 874.122 551.4C860.122 534.2 853.322 512.6 853.322 487C853.322 461.4 860.122 440.2 874.122 423C888.122 405.8 904.922 397 925.322 397C945.722 397 962.922 405.4 976.922 422.6C990.922 439.8 997.722 461 997.722 487C997.722 513 990.922 534.2 976.922 551.4C962.922 568.6 945.722 577 925.322 577ZM1259.21 511.4L1163.61 337H1099.61V637H1163.61V462.2L1259.21 637H1323.21V337H1259.21V511.4Z" fill="#93845B"/>
  <path d="M1533.63 245.211L1379.64 327.087L1520.48 591.971L1674.47 510.095L1644.42 453.587L1546.95 505.416L1518.59 452.086L1592.4 412.838L1562.36 356.33L1488.54 395.578L1466.2 353.549L1563.67 301.72L1533.63 245.211Z" fill="#93845B"/>
  <path d="M1814.37 134.093L1615.71 143.566L1587.65 201.088L1857.29 332.6L1885.35 275.077L1728.24 198.45L1927.25 189.152L1955.31 131.629L1685.67 0.118082L1657.62 57.6409L1814.37 134.093Z" fill="#93845B"/>
</svg>

