<svg width="636" height="1147" viewBox="0 0 636 1147" fill="none" xmlns="http://www.w3.org/2000/svg">
<path d="M520.5 33.65C520.5 44.9 523.5 53.9 529.5 60.65C535.65 67.4 543.75 70.85 554.1 70.85C566.25 70.85 575.55 65.75 580.95 58.7C583.8 55.25 586.65 50.6 589.5 44.75C589.95 44 590.55 42.35 591.6 40.1C592.65 37.85 593.4 36.2 593.85 35.45L595.95 32.45C597.75 29.9 599.4 29.15 601.8 29.15C606.6 29.15 609 33.05 609 40.85C609 45.65 607.5 50.45 604.5 55.4C601.65 60.35 598.2 64.4 594.45 67.25L624.15 66.95C632.1 59.6 636 49.7 636 37.1C636 26.9 633 18.5 626.85 11.9C620.85 5.45 613.35 2.15 604.5 2.15C594.6 2.15 586.95 4.1 581.7 8.15C576.45 12.2 571.5 18.8 567.15 27.95C566.4 29.75 564.45 33.05 563.7 34.7C562.95 36.35 561.45 39.05 560.4 40.25C558.6 42.35 556.95 43.85 554.55 43.85C550.2 43.85 547.5 38.6 547.5 32C547.5 20.3 553.05 10.4 564 2.15L534 2.15L532.5 3.35C529.05 6.35 520.5 17 520.5 33.65ZM634.5 80.2262H607.5V108.276L522 108.276V135.276L607.5 135.276V163.326H634.5V80.2262ZM522 260.239L634.5 227.239V191.839L522 158.989V187.189L550.35 194.539V224.539L522 231.889V260.239ZM607.5 209.389V209.689L577.35 217.489V201.589L607.5 209.389ZM592.5 357.059C604.35 357.059 614.25 353.159 622.35 345.209C630.45 337.409 634.5 327.809 634.5 316.409L634.5 272.609H522V299.609H550.35V314.159L522 325.709L522 354.209L557.7 339.659C565.35 350.459 578.1 357.059 592.5 357.059ZM607.5 316.409C607.5 324.209 601.05 330.059 592.5 330.059C583.95 330.059 577.35 324.209 577.35 316.409V299.609H607.5V316.409ZM634.5 367.921H607.5V395.971H522V422.971H607.5V451.021H634.5V367.921ZM522 465.383V492.383H634.5V465.383H522ZM573.6 569.489L634.5 535.889V508.889H522V535.889H582.9L522 569.489V596.489H634.5V569.489H573.6ZM609 665.243C609 676.193 603.45 687.293 592.35 698.693H623.1C631.65 689.243 636 677.843 636 664.493C636 649.193 630.45 636.443 619.2 626.093C608.1 615.893 594.45 610.793 578.25 610.793C562.05 610.793 548.4 615.893 537.15 626.093C526.05 636.443 520.5 649.193 520.5 664.493C520.5 677.843 524.85 689.243 533.55 698.693H585.15V659.993H561.9V672.593H548.25C547.8 669.893 547.5 667.343 547.5 665.093C547.5 657.443 550.5 650.843 556.5 645.593C562.65 640.343 569.85 637.793 578.25 637.793C586.35 637.793 593.55 640.343 599.7 645.443C605.85 650.693 609 657.293 609 665.243ZM520.5 802.313C520.5 817.463 526.05 830.063 537.15 840.113C548.4 850.163 562.05 855.113 578.25 855.113C594.6 855.113 608.25 850.163 619.35 840.113C630.45 830.063 636 817.463 636 802.313C636 787.163 630.45 774.563 619.2 764.513C608.1 754.463 594.45 749.513 578.25 749.513C562.05 749.513 548.4 754.463 537.15 764.513C526.05 774.563 520.5 787.163 520.5 802.313ZM547.5 802.313C547.5 795.113 550.5 788.963 556.35 784.013C562.2 779.063 569.55 776.513 578.25 776.513C586.95 776.513 594.3 779.063 600.15 784.013C606 788.963 609 795.113 609 802.313C609 809.663 606 815.663 600.15 820.613C594.3 825.563 586.95 828.113 578.25 828.113C569.55 828.113 562.2 825.563 556.35 820.613C550.5 815.663 547.5 809.663 547.5 802.313ZM573.6 929.987L634.5 896.387V869.387H522L522 896.387H582.9L522 929.987V956.987H634.5V929.987H573.6ZM392 101.45L504.5 68.45V33.05L392 0.2V28.4L420.35 35.75V65.75L392 73.1V101.45ZM477.5 50.6V50.9L447.35 58.7V42.8L477.5 50.6ZM504.5 218.681V150.881L392 150.881V177.881L435.95 177.881V207.881H462.95V177.881H477.5V218.681H504.5ZM392 231.594V258.594L504.5 258.594V231.594L392 231.594ZM443.6 335.7L504.5 302.1V275.1L392 275.1V302.1H452.9L392 335.7V362.7L504.5 362.7V335.7L443.6 335.7ZM443.6 439.85L504.5 406.25L504.5 379.25L392 379.25L392 406.25H452.9L392 439.85V466.85L504.5 466.85V439.85L443.6 439.85ZM392 483.4V510.4H504.5V483.4L392 483.4ZM390.5 556.16C390.5 567.41 393.5 576.41 399.5 583.16C405.65 589.91 413.75 593.36 424.1 593.36C436.25 593.36 445.55 588.26 450.95 581.21C453.8 577.76 456.65 573.11 459.5 567.26C459.95 566.51 460.55 564.86 461.6 562.61C462.65 560.36 463.4 558.71 463.85 557.96L465.95 554.96C467.75 552.41 469.4 551.66 471.8 551.66C476.6 551.66 479 555.56 479 563.36C479 568.16 477.5 572.96 474.5 577.91C471.65 582.86 468.2 586.91 464.45 589.76L494.15 589.46C502.1 582.11 506 572.21 506 559.61C506 549.41 503 541.01 496.85 534.41C490.85 527.96 483.35 524.66 474.5 524.66C464.6 524.66 456.95 526.61 451.7 530.66C446.45 534.71 441.5 541.31 437.15 550.46C436.4 552.26 434.45 555.56 433.7 557.21C432.95 558.86 431.45 561.56 430.4 562.76C428.6 564.86 426.95 566.36 424.55 566.36C420.2 566.36 417.5 561.11 417.5 554.51C417.5 542.81 423.05 532.91 434 524.66H404L402.5 525.86C399.05 528.86 390.5 539.51 390.5 556.16ZM461.75 667.919V634.619H504.5V607.619H392V634.619H434.75V667.919H392V694.919H504.5V667.919H461.75ZM374.5 2.15L347.5 2.15V30.2L262 30.2V57.2L347.5 57.2V85.25H374.5V2.15ZM374.5 167.411L374.5 99.6113L262 99.6113L262 167.411H289L289 126.611H305.95L305.95 156.611H332.95L332.95 126.611H347.5L347.5 167.411H374.5ZM374.5 208.936V181.936H262V249.736H289V208.936H374.5ZM374.5 330.595V262.795H262V330.595H289V289.795H305.95V319.795H332.95V289.795H347.5V330.595H374.5ZM289 391.769V391.469L374.5 369.269V341.069L262 373.919V409.319L374.5 442.319V413.969L289 391.769ZM262 454.689L262 481.689H374.5L374.5 454.689H262ZM260.5 527.449C260.5 538.699 263.5 547.699 269.5 554.449C275.65 561.199 283.75 564.649 294.1 564.649C306.25 564.649 315.55 559.549 320.95 552.499C323.8 549.049 326.65 544.399 329.5 538.549C329.95 537.799 330.55 536.149 331.6 533.899C332.65 531.649 333.4 529.999 333.85 529.249L335.95 526.249C337.75 523.699 339.4 522.949 341.8 522.949C346.6 522.949 349 526.849 349 534.649C349 539.449 347.5 544.249 344.5 549.199C341.65 554.149 338.2 558.199 334.45 561.049L364.15 560.749C372.1 553.399 376 543.499 376 530.899C376 520.699 373 512.299 366.85 505.699C360.85 499.249 353.35 495.949 344.5 495.949C334.6 495.949 326.95 497.899 321.7 501.949C316.45 505.999 311.5 512.599 307.15 521.749C306.4 523.549 304.45 526.849 303.7 528.499C302.95 530.149 301.45 532.849 300.4 534.049C298.6 536.149 296.95 537.649 294.55 537.649C290.2 537.649 287.5 532.399 287.5 525.799C287.5 514.099 293.05 504.199 304 495.949H274L272.5 497.149C269.05 500.149 260.5 510.799 260.5 527.449ZM262 578.908V605.908L374.5 605.908V578.908L262 578.908ZM260.5 672.968C260.5 688.118 266.05 700.718 277.15 710.768C288.4 720.818 302.05 725.768 318.25 725.768C334.6 725.768 348.25 720.818 359.35 710.768C370.45 700.718 376 688.118 376 672.968C376 657.818 370.45 645.218 359.2 635.168C348.1 625.118 334.45 620.168 318.25 620.168C302.05 620.168 288.4 625.118 277.15 635.168C266.05 645.218 260.5 657.818 260.5 672.968ZM287.5 672.968C287.5 665.768 290.5 659.618 296.35 654.668C302.2 649.718 309.55 647.168 318.25 647.168C326.95 647.168 334.3 649.718 340.15 654.668C346 659.618 349 665.768 349 672.968C349 680.318 346 686.318 340.15 691.268C334.3 696.218 326.95 698.768 318.25 698.768C309.55 698.768 302.2 696.218 296.35 691.268C290.5 686.318 287.5 680.318 287.5 672.968ZM313.6 800.641L374.5 767.041V740.041L262 740.041V767.041H322.9L262 800.641V827.641L374.5 827.641V800.641L313.6 800.641ZM130.5 33.65C130.5 44.9 133.5 53.9 139.5 60.65C145.65 67.4 153.75 70.85 164.1 70.85C176.25 70.85 185.55 65.75 190.95 58.7C193.8 55.25 196.65 50.6 199.5 44.75C199.95 44 200.55 42.35 201.6 40.1C202.65 37.85 203.4 36.2 203.85 35.45L205.95 32.45C207.75 29.9 209.4 29.15 211.8 29.15C216.6 29.15 219 33.05 219 40.85C219 45.65 217.5 50.45 214.5 55.4C211.65 60.35 208.2 64.4 204.45 67.25L234.15 66.95C242.1 59.6 246 49.7 246 37.1C246 26.9 243 18.5 236.85 11.9C230.85 5.45 223.35 2.15 214.5 2.15C204.6 2.15 196.95 4.1 191.7 8.15C186.45 12.2 181.5 18.8 177.15 27.95C176.4 29.75 174.45 33.05 173.7 34.7C172.95 36.35 171.45 39.05 170.4 40.25C168.6 42.35 166.95 43.85 164.55 43.85C160.2 43.85 157.5 38.6 157.5 32C157.5 20.3 163.05 10.4 174 2.15L144 2.15L142.5 3.35C139.05 6.35 130.5 17 130.5 33.65ZM244.5 152.909L244.5 85.1094L132 85.1094V152.909H159L159 112.109H175.95V142.109H202.95V112.109H217.5L217.5 152.909H244.5ZM202.5 251.884C214.35 251.884 224.25 247.984 232.35 240.034C240.45 232.234 244.5 222.634 244.5 211.234V167.434H132V194.434H160.35V208.984L132 220.534V249.034L167.7 234.484C175.35 245.284 188.1 251.884 202.5 251.884ZM217.5 211.234C217.5 219.034 211.05 224.884 202.5 224.884C193.95 224.884 187.35 219.034 187.35 211.234V194.434H217.5V211.234ZM132 264.992V291.992L244.5 291.992V264.992L132 264.992ZM244.5 376.298V308.498L132 308.498V376.298H159V335.498H175.95V365.498L202.95 365.498V335.498H217.5V376.298H244.5ZM130.5 420.076C130.5 431.326 133.5 440.326 139.5 447.076C145.65 453.826 153.75 457.276 164.1 457.276C176.25 457.276 185.55 452.176 190.95 445.126C193.8 441.676 196.65 437.026 199.5 431.176C199.95 430.426 200.55 428.776 201.6 426.526C202.65 424.276 203.4 422.626 203.85 421.876L205.95 418.876C207.75 416.326 209.4 415.576 211.8 415.576C216.6 415.576 219 419.476 219 427.276C219 432.076 217.5 436.876 214.5 441.826C211.65 446.776 208.2 450.826 204.45 453.676L234.15 453.376C242.1 446.026 246 436.126 246 423.526C246 413.326 243 404.926 236.85 398.326C230.85 391.876 223.35 388.576 214.5 388.576C204.6 388.576 196.95 390.526 191.7 394.576C186.45 398.626 181.5 405.226 177.15 414.376C176.4 416.176 174.45 419.476 173.7 421.126C172.95 422.776 171.45 425.476 170.4 426.676C168.6 428.776 166.95 430.276 164.55 430.276C160.2 430.276 157.5 425.026 157.5 418.426C157.5 406.726 163.05 396.826 174 388.576H144L142.5 389.776C139.05 392.776 130.5 403.426 130.5 420.076Z" fill="black"/>
<path d="M130.5 560.342C130.5 573.692 134.85 585.092 143.55 594.542H174.15C163.05 583.142 157.5 571.892 157.5 560.942C157.5 553.292 160.5 546.692 166.5 541.442C172.65 536.192 179.85 533.642 188.25 533.642C196.35 533.642 203.55 536.192 209.7 541.292C215.85 546.542 219 553.142 219 561.092C219 572.042 213.45 583.142 202.35 594.542H233.1C241.65 585.092 246 573.692 246 560.342C246 545.042 240.45 532.292 229.2 521.942C218.1 511.742 204.45 506.642 188.25 506.642C172.05 506.642 158.4 511.742 147.15 521.942C136.05 532.292 130.5 545.042 130.5 560.342ZM132 706.138L244.5 673.138V637.738L132 604.888V633.088L160.35 640.438V670.438L132 677.787V706.138ZM217.5 655.288V655.588L187.35 663.388V647.488L217.5 655.288ZM244.5 745.508V718.508H132V786.308H159L159 745.508H244.5ZM244.5 826.367V799.367H132V867.167H159V826.367H244.5ZM244.5 948.027V880.227H132L132 948.027H159V907.227H175.95V937.227H202.95V907.227H217.5V948.027H244.5ZM244.5 962.551H132V1005.9C132 1020.45 137.4 1032.6 148.05 1042.5C158.85 1052.4 172.2 1057.35 188.25 1057.35C204.3 1057.35 217.65 1052.4 228.3 1042.5C239.1 1032.6 244.5 1020.45 244.5 1005.9V962.551ZM159 989.551H217.5V1005.9C217.5 1012.65 214.8 1018.5 209.4 1023.15C204 1027.95 196.95 1030.35 188.25 1030.35C179.55 1030.35 172.5 1027.95 167.1 1023.15C161.7 1018.5 159 1012.65 159 1005.9V989.551ZM114.5 81.5L38.6 59.75L114.5 38V4.25L2 4.25V31.25L51.5 31.25L2 46.1V73.25L51.5 88.1H2V115.1L114.5 115.1V81.5ZM0.5 182.098C0.5 197.248 6.05 209.848 17.15 219.898C28.4 229.948 42.05 234.898 58.25 234.898C74.6 234.898 88.25 229.948 99.35 219.898C110.45 209.848 116 197.248 116 182.098C116 166.948 110.45 154.348 99.2 144.298C88.1 134.248 74.45 129.298 58.25 129.298C42.05 129.298 28.4 134.248 17.15 144.298C6.05 154.348 0.5 166.948 0.5 182.098ZM27.5 182.098C27.5 174.898 30.5 168.748 36.35 163.798C42.2 158.848 49.55 156.298 58.25 156.298C66.95 156.298 74.3 158.848 80.15 163.798C86 168.748 89 174.898 89 182.098C89 189.448 86 195.448 80.15 200.398C74.3 205.348 66.95 207.898 58.25 207.898C49.55 207.898 42.2 205.348 36.35 200.398C30.5 195.448 27.5 189.448 27.5 182.098ZM114.5 249.172L2 249.172V292.522C2 307.072 7.4 319.222 18.05 329.122C28.85 339.022 42.2 343.972 58.25 343.972C74.3 343.972 87.65 339.022 98.3 329.122C109.1 319.222 114.5 307.072 114.5 292.522V249.172ZM29 276.172H87.5V292.522C87.5 299.272 84.8 305.122 79.4 309.772C74 314.572 66.95 316.972 58.25 316.972C49.55 316.972 42.5 314.572 37.1 309.772C31.7 305.122 29 299.272 29 292.522V276.172ZM114.5 425.956V358.156H2V425.956H29V385.156H45.95V415.156H72.95V385.156H87.5V425.956H114.5ZM114.5 467.48V440.48H2V508.28H29V467.48H114.5ZM0.5 587.8C0.5 599.05 3.5 608.05 9.5 614.8C15.65 621.55 23.75 625 34.1 625C46.25 625 55.55 619.9 60.95 612.85C63.8 609.4 66.65 604.75 69.5 598.9C69.95 598.15 70.55 596.5 71.6 594.25C72.65 592 73.4 590.35 73.85 589.6L75.95 586.6C77.75 584.05 79.4 583.3 81.8 583.3C86.6 583.3 89 587.2 89 595C89 599.8 87.5 604.6 84.5 609.55C81.65 614.5 78.2 618.55 74.45 621.4L104.15 621.1C112.1 613.75 116 603.85 116 591.25C116 581.05 113 572.65 106.85 566.05C100.85 559.6 93.35 556.3 84.5 556.3C74.6 556.3 66.95 558.25 61.7 562.3C56.45 566.35 51.5 572.95 47.15 582.1C46.4 583.9 44.45 587.2 43.7 588.85C42.95 590.5 41.45 593.2 40.4 594.4C38.6 596.5 36.95 598 34.55 598C30.2 598 27.5 592.75 27.5 586.15C27.5 574.45 33.05 564.55 44 556.3H14L12.5 557.5C9.05 560.5 0.5 571.15 0.5 587.8ZM0.5 690.567C0.5 703.917 4.85 715.317 13.55 724.767H44.15C33.05 713.367 27.5 702.117 27.5 691.167C27.5 683.517 30.5 676.917 36.5 671.667C42.65 666.417 49.85 663.867 58.25 663.867C66.35 663.867 73.55 666.417 79.7 671.517C85.85 676.767 89 683.367 89 691.317C89 702.267 83.45 713.367 72.35 724.767H103.1C111.65 715.317 116 703.917 116 690.567C116 675.267 110.45 662.517 99.2 652.167C88.1 641.967 74.45 636.867 58.25 636.867C42.05 636.867 28.4 641.967 17.15 652.167C6.05 662.517 0.5 675.267 0.5 690.567ZM71.75 799.462V766.162H114.5V739.162H2V766.162H44.75V799.462H2V826.462H114.5V799.462H71.75ZM0.5 893.573C0.5 908.723 6.05 921.323 17.15 931.373C28.4 941.423 42.05 946.373 58.25 946.373C74.6 946.373 88.25 941.423 99.35 931.373C110.45 921.323 116 908.723 116 893.573C116 878.423 110.45 865.823 99.2 855.773C88.1 845.723 74.45 840.773 58.25 840.773C42.05 840.773 28.4 845.723 17.15 855.773C6.05 865.823 0.5 878.423 0.5 893.573ZM27.5 893.573C27.5 886.373 30.5 880.223 36.35 875.273C42.2 870.323 49.55 867.773 58.25 867.773C66.95 867.773 74.3 870.323 80.15 875.273C86 880.223 89 886.373 89 893.573C89 900.923 86 906.923 80.15 911.873C74.3 916.823 66.95 919.373 58.25 919.373C49.55 919.373 42.2 916.823 36.35 911.873C30.5 906.923 27.5 900.923 27.5 893.573ZM0.5 1011.49C0.5 1026.64 6.05 1039.24 17.15 1049.29C28.4 1059.34 42.05 1064.29 58.25 1064.29C74.6 1064.29 88.25 1059.34 99.35 1049.29C110.45 1039.24 116 1026.64 116 1011.49C116 996.343 110.45 983.743 99.2 973.693C88.1 963.643 74.45 958.693 58.25 958.693C42.05 958.693 28.4 963.643 17.15 973.693C6.05 983.743 0.5 996.343 0.5 1011.49ZM27.5 1011.49C27.5 1004.29 30.5 998.143 36.35 993.193C42.2 988.243 49.55 985.693 58.25 985.693C66.95 985.693 74.3 988.243 80.15 993.193C86 998.143 89 1004.29 89 1011.49C89 1018.84 86 1024.84 80.15 1029.79C74.3 1034.74 66.95 1037.29 58.25 1037.29C49.55 1037.29 42.2 1034.74 36.35 1029.79C30.5 1024.84 27.5 1018.84 27.5 1011.49ZM114.5 1105.57V1078.57L2 1078.57V1146.37L29 1146.37V1105.57H114.5Z" fill="#DCDCDC"/>
</svg>
