<svg width="825" height="308" viewBox="0 0 825 308" fill="none" xmlns="http://www.w3.org/2000/svg">
<path class="suvi" d="M82.4 308C111.6 308 135.2 300.4 152.4 284.8C170 269.2 178.8 248 178.8 221.2C178.8 198 172.8 179.6 161.2 165.6C149.6 151.6 131.6 138 106.8 124.8L88.4 115.2C84.8 113.2 76.8 108.8 73.6 106C68.8 100 64.4 95.2 64.4 87.6C64.4 72 76 64 99.2 64C126 64 153.6 82.4 169.2 103.6L168.4 30.8C150 10.4 124.4 -2.00272e-05 91.2 -2.00272e-05C64.4 -2.00272e-05 42.8 7.59998 25.6 23.2C8.8 38.8 0.4 58 0.4 81.6C0.4 106.8 5.6 126.4 16.4 140.4C27.2 154.4 44.8 167.2 68.8 179.2L79.2 185.2L89.2 190.8C92.8 192.8 102 198.8 104.8 201.6C110.8 206.4 114.8 212.8 114.8 219.6C114.8 235.2 99.6 244 79.2 244C48 244 21.6 228.8 0.4 198.8V272.4L3.2 276C12 286 38.4 308 82.4 308ZM325.328 308C356.528 308 382.528 297.6 402.928 276.4C423.328 255.2 433.728 228.8 433.728 197.6V3.99998H369.728V197.6C369.728 223.6 350.528 244 325.328 244C300.128 244 281.328 224.4 281.328 197.6V3.99998H217.328V197.6C217.328 228.8 227.728 255.2 248.128 276.4C268.528 297.6 294.528 308 325.328 308ZM597.875 240H596.675L533.875 3.99998H467.075L554.675 304H639.475L727.475 3.99998H660.275L597.875 240ZM760.297 304H824.297V3.99998H760.297V304Z" fill="#93845B"/>
</svg>
