<svg width="929" height="322" viewBox="0 0 929 322" fill="none" xmlns="http://www.w3.org/2000/svg">
  <path d="M147.12 282.16L129.6 142H76.8L59.28 283.12L39.6 142H0.72L31.68 322H87.12L103.2 193.6L119.52 322H174.96L205.92 142H166.8L147.12 282.16ZM225.638 322H264.038V142H225.638V322ZM386.085 246.64L328.725 142H290.325V322H328.725V217.12L386.085 322H424.485V142H386.085V246.64ZM447.043 142V180.4H491.923V322H530.323V180.4H574.963V142H447.043Z" fill="#93845B"/>
  <path d="M694.698 94.1983L599.862 138.421L675.933 301.557L770.769 257.334L754.541 222.532L694.507 250.526L679.191 217.681L724.652 196.483L708.423 161.68L662.963 182.879L650.893 156.995L710.927 129.001L694.698 94.1983Z" fill="#93845B"/>
  <path d="M842.786 14.4833C827.835 3.2173 811.766 -1.3792 794.433 0.885441C777.099 3.15008 763.305 11.0868 752.762 25.0789L713.186 77.5971L856.941 185.924L880.05 155.256L840.949 125.791L855.97 105.857L906.771 119.797L931.325 87.2125L869.683 70.5125C870.835 49.4431 861.378 28.4935 842.786 14.4833ZM783.429 48.1886C791.662 37.2632 807.217 35.7626 819.676 45.1509C832.135 54.5392 834.98 69.9057 826.747 80.831L810.282 102.682L766.964 70.0392L783.429 48.1886Z" fill="#93845B"/>
</svg>
